<mxfile host="app.diagrams.net" modified="2023-05-01T12:57:49.204Z" agent="Mozilla/5.0 (Windows NT 10.0; Win64; x64; rv:109.0) Gecko/20100101 Firefox/112.0" etag="ZbI8v93OfGv1fEr9m1SK" version="21.2.3" type="device">
  <diagram name="Seite-1" id="bGis5d8s_SbNN8_UjQ-U">
    <mxGraphModel dx="2074" dy="1154" grid="0" gridSize="10" guides="1" tooltips="1" connect="1" arrows="1" fold="1" page="0" pageScale="1" pageWidth="827" pageHeight="1169" math="0" shadow="0">
      <root>
        <mxCell id="0" />
        <mxCell id="1" parent="0" />
        <mxCell id="nhHEfngSigDMjDyeL3VS-1" value="Data" style="swimlane;fontStyle=1;align=center;verticalAlign=top;childLayout=stackLayout;horizontal=1;startSize=26;horizontalStack=0;resizeParent=1;resizeParentMax=0;resizeLast=0;collapsible=1;marginBottom=0;whiteSpace=wrap;html=1;fillColor=#f5f5f5;fontColor=#333333;strokeColor=#666666;" parent="1" vertex="1">
          <mxGeometry x="103" y="541" width="160" height="100" as="geometry" />
        </mxCell>
        <mxCell id="nhHEfngSigDMjDyeL3VS-2" value="&lt;div&gt;+ temperature: double&lt;/div&gt;&lt;div&gt;+ humidity: int&lt;br&gt;&lt;/div&gt;" style="text;strokeColor=none;fillColor=none;align=left;verticalAlign=top;spacingLeft=4;spacingRight=4;overflow=hidden;rotatable=0;points=[[0,0.5],[1,0.5]];portConstraint=eastwest;whiteSpace=wrap;html=1;" parent="nhHEfngSigDMjDyeL3VS-1" vertex="1">
          <mxGeometry y="26" width="160" height="40" as="geometry" />
        </mxCell>
        <mxCell id="nhHEfngSigDMjDyeL3VS-3" value="" style="line;strokeWidth=1;fillColor=none;align=left;verticalAlign=middle;spacingTop=-1;spacingLeft=3;spacingRight=3;rotatable=0;labelPosition=right;points=[];portConstraint=eastwest;strokeColor=inherit;" parent="nhHEfngSigDMjDyeL3VS-1" vertex="1">
          <mxGeometry y="66" width="160" height="8" as="geometry" />
        </mxCell>
        <mxCell id="nhHEfngSigDMjDyeL3VS-4" value="+getData(): String" style="text;strokeColor=none;fillColor=none;align=left;verticalAlign=top;spacingLeft=4;spacingRight=4;overflow=hidden;rotatable=0;points=[[0,0.5],[1,0.5]];portConstraint=eastwest;whiteSpace=wrap;html=1;" parent="nhHEfngSigDMjDyeL3VS-1" vertex="1">
          <mxGeometry y="74" width="160" height="26" as="geometry" />
        </mxCell>
        <mxCell id="nhHEfngSigDMjDyeL3VS-5" value="CentralOffice" style="swimlane;fontStyle=1;align=center;verticalAlign=top;childLayout=stackLayout;horizontal=1;startSize=26;horizontalStack=0;resizeParent=1;resizeParentMax=0;resizeLast=0;collapsible=1;marginBottom=0;whiteSpace=wrap;html=1;fillColor=#dae8fc;strokeColor=#6c8ebf;" parent="1" vertex="1">
          <mxGeometry x="327" y="536" width="160" height="103" as="geometry" />
        </mxCell>
        <mxCell id="nhHEfngSigDMjDyeL3VS-6" value="+ mesData: Data" style="text;strokeColor=none;fillColor=none;align=left;verticalAlign=top;spacingLeft=4;spacingRight=4;overflow=hidden;rotatable=0;points=[[0,0.5],[1,0.5]];portConstraint=eastwest;whiteSpace=wrap;html=1;" parent="nhHEfngSigDMjDyeL3VS-5" vertex="1">
          <mxGeometry y="26" width="160" height="26" as="geometry" />
        </mxCell>
        <mxCell id="nhHEfngSigDMjDyeL3VS-7" value="" style="line;strokeWidth=1;fillColor=none;align=left;verticalAlign=middle;spacingTop=-1;spacingLeft=3;spacingRight=3;rotatable=0;labelPosition=right;points=[];portConstraint=eastwest;strokeColor=inherit;" parent="nhHEfngSigDMjDyeL3VS-5" vertex="1">
          <mxGeometry y="52" width="160" height="8" as="geometry" />
        </mxCell>
        <mxCell id="nhHEfngSigDMjDyeL3VS-8" value="&lt;div&gt;+ getActualData(): Data&lt;/div&gt;&lt;div&gt;+ setActualData(Data): void&lt;br&gt;&lt;/div&gt;" style="text;strokeColor=none;fillColor=none;align=left;verticalAlign=top;spacingLeft=4;spacingRight=4;overflow=hidden;rotatable=0;points=[[0,0.5],[1,0.5]];portConstraint=eastwest;whiteSpace=wrap;html=1;" parent="nhHEfngSigDMjDyeL3VS-5" vertex="1">
          <mxGeometry y="60" width="160" height="43" as="geometry" />
        </mxCell>
        <mxCell id="nhHEfngSigDMjDyeL3VS-9" value="&lt;div style=&quot;font-size: 10px;&quot;&gt;&lt;span style=&quot;font-weight: normal;&quot;&gt;&amp;lt;&amp;lt;abstract&amp;gt;&amp;gt;&lt;/span&gt;&lt;br&gt;&lt;/div&gt;&lt;div&gt;OfficeHandler&lt;/div&gt;" style="swimlane;fontStyle=1;align=center;verticalAlign=top;childLayout=stackLayout;horizontal=1;startSize=34;horizontalStack=0;resizeParent=1;resizeParentMax=0;resizeLast=0;collapsible=1;marginBottom=0;whiteSpace=wrap;html=1;fillColor=#dae8fc;strokeColor=#6c8ebf;" parent="1" vertex="1">
          <mxGeometry x="288.5" y="377" width="243" height="132" as="geometry" />
        </mxCell>
        <mxCell id="nhHEfngSigDMjDyeL3VS-10" value="+ subscribers: List&amp;lt;Subscriber&amp;gt; " style="text;strokeColor=none;fillColor=none;align=left;verticalAlign=top;spacingLeft=4;spacingRight=4;overflow=hidden;rotatable=0;points=[[0,0.5],[1,0.5]];portConstraint=eastwest;whiteSpace=wrap;html=1;" parent="nhHEfngSigDMjDyeL3VS-9" vertex="1">
          <mxGeometry y="34" width="243" height="26" as="geometry" />
        </mxCell>
        <mxCell id="nhHEfngSigDMjDyeL3VS-11" value="" style="line;strokeWidth=1;fillColor=none;align=left;verticalAlign=middle;spacingTop=-1;spacingLeft=3;spacingRight=3;rotatable=0;labelPosition=right;points=[];portConstraint=eastwest;strokeColor=inherit;" parent="nhHEfngSigDMjDyeL3VS-9" vertex="1">
          <mxGeometry y="60" width="243" height="8" as="geometry" />
        </mxCell>
        <mxCell id="nhHEfngSigDMjDyeL3VS-12" value="&lt;div&gt;+ addSubscription(Subscriber): void&lt;/div&gt;&lt;div&gt;&lt;div&gt;+ removeSubscription(Subscriber): void&lt;/div&gt;&lt;/div&gt;&lt;div&gt;+ sendData(Data): void&lt;br&gt;&lt;/div&gt;" style="text;strokeColor=none;fillColor=none;align=left;verticalAlign=top;spacingLeft=4;spacingRight=4;overflow=hidden;rotatable=0;points=[[0,0.5],[1,0.5]];portConstraint=eastwest;whiteSpace=wrap;html=1;" parent="nhHEfngSigDMjDyeL3VS-9" vertex="1">
          <mxGeometry y="68" width="243" height="64" as="geometry" />
        </mxCell>
        <mxCell id="nhHEfngSigDMjDyeL3VS-14" value="" style="endArrow=open;endFill=1;endSize=12;html=1;rounded=0;exitX=0.5;exitY=0;exitDx=0;exitDy=0;entryX=0.494;entryY=1.077;entryDx=0;entryDy=0;entryPerimeter=0;" parent="1" source="nhHEfngSigDMjDyeL3VS-5" target="nhHEfngSigDMjDyeL3VS-12" edge="1">
          <mxGeometry width="160" relative="1" as="geometry">
            <mxPoint x="332" y="593" as="sourcePoint" />
            <mxPoint x="465" y="501" as="targetPoint" />
          </mxGeometry>
        </mxCell>
        <mxCell id="nhHEfngSigDMjDyeL3VS-15" value="&lt;div style=&quot;font-size: 10px;&quot;&gt;&lt;span style=&quot;font-weight: normal;&quot;&gt;&amp;lt;&amp;lt;interface&amp;gt;&amp;gt;&lt;/span&gt;&lt;br&gt;&lt;/div&gt;&lt;div&gt;Subscriber&lt;/div&gt;" style="swimlane;fontStyle=1;align=center;verticalAlign=top;childLayout=stackLayout;horizontal=1;startSize=42;horizontalStack=0;resizeParent=1;resizeParentMax=0;resizeLast=0;collapsible=1;marginBottom=0;whiteSpace=wrap;html=1;" parent="1" vertex="1">
          <mxGeometry x="676" y="397" width="160" height="76" as="geometry" />
        </mxCell>
        <mxCell id="nhHEfngSigDMjDyeL3VS-17" value="" style="line;strokeWidth=1;fillColor=none;align=left;verticalAlign=middle;spacingTop=-1;spacingLeft=3;spacingRight=3;rotatable=0;labelPosition=right;points=[];portConstraint=eastwest;strokeColor=inherit;" parent="nhHEfngSigDMjDyeL3VS-15" vertex="1">
          <mxGeometry y="42" width="160" height="8" as="geometry" />
        </mxCell>
        <mxCell id="nhHEfngSigDMjDyeL3VS-18" value="+ getData(Data): void" style="text;strokeColor=none;fillColor=none;align=left;verticalAlign=top;spacingLeft=4;spacingRight=4;overflow=hidden;rotatable=0;points=[[0,0.5],[1,0.5]];portConstraint=eastwest;whiteSpace=wrap;html=1;" parent="nhHEfngSigDMjDyeL3VS-15" vertex="1">
          <mxGeometry y="50" width="160" height="26" as="geometry" />
        </mxCell>
        <mxCell id="nhHEfngSigDMjDyeL3VS-19" value="1" style="endArrow=open;html=1;endSize=12;startArrow=diamondThin;startSize=14;startFill=0;edgeStyle=orthogonalEdgeStyle;align=left;verticalAlign=bottom;rounded=0;exitX=0.998;exitY=0;exitDx=0;exitDy=0;exitPerimeter=0;entryX=-0.003;entryY=0.539;entryDx=0;entryDy=0;entryPerimeter=0;" parent="1" source="nhHEfngSigDMjDyeL3VS-12" target="nhHEfngSigDMjDyeL3VS-15" edge="1">
          <mxGeometry x="-1" y="3" relative="1" as="geometry">
            <mxPoint x="590" y="605" as="sourcePoint" />
            <mxPoint x="647" y="439" as="targetPoint" />
            <Array as="points">
              <mxPoint x="664" y="438" />
              <mxPoint x="664" y="438" />
            </Array>
          </mxGeometry>
        </mxCell>
        <mxCell id="nhHEfngSigDMjDyeL3VS-20" value="Display1" style="swimlane;fontStyle=1;align=center;verticalAlign=top;childLayout=stackLayout;horizontal=1;startSize=26;horizontalStack=0;resizeParent=1;resizeParentMax=0;resizeLast=0;collapsible=1;marginBottom=0;whiteSpace=wrap;html=1;" parent="1" vertex="1">
          <mxGeometry x="578" y="519" width="160" height="60" as="geometry" />
        </mxCell>
        <mxCell id="nhHEfngSigDMjDyeL3VS-22" value="" style="line;strokeWidth=1;fillColor=none;align=left;verticalAlign=middle;spacingTop=-1;spacingLeft=3;spacingRight=3;rotatable=0;labelPosition=right;points=[];portConstraint=eastwest;strokeColor=inherit;" parent="nhHEfngSigDMjDyeL3VS-20" vertex="1">
          <mxGeometry y="26" width="160" height="8" as="geometry" />
        </mxCell>
        <mxCell id="nhHEfngSigDMjDyeL3VS-23" value="+getData(Data): void" style="text;strokeColor=none;fillColor=none;align=left;verticalAlign=top;spacingLeft=4;spacingRight=4;overflow=hidden;rotatable=0;points=[[0,0.5],[1,0.5]];portConstraint=eastwest;whiteSpace=wrap;html=1;" parent="nhHEfngSigDMjDyeL3VS-20" vertex="1">
          <mxGeometry y="34" width="160" height="26" as="geometry" />
        </mxCell>
        <mxCell id="nhHEfngSigDMjDyeL3VS-24" value="Use" style="endArrow=open;endSize=12;dashed=1;html=1;rounded=0;exitX=0.474;exitY=0.017;exitDx=0;exitDy=0;exitPerimeter=0;entryX=0.246;entryY=1.07;entryDx=0;entryDy=0;entryPerimeter=0;" parent="1" source="nhHEfngSigDMjDyeL3VS-20" target="nhHEfngSigDMjDyeL3VS-18" edge="1">
          <mxGeometry width="160" relative="1" as="geometry">
            <mxPoint x="746" y="524" as="sourcePoint" />
            <mxPoint x="906" y="524" as="targetPoint" />
          </mxGeometry>
        </mxCell>
        <mxCell id="nhHEfngSigDMjDyeL3VS-25" value="Display2" style="swimlane;fontStyle=1;align=center;verticalAlign=top;childLayout=stackLayout;horizontal=1;startSize=26;horizontalStack=0;resizeParent=1;resizeParentMax=0;resizeLast=0;collapsible=1;marginBottom=0;whiteSpace=wrap;html=1;" parent="1" vertex="1">
          <mxGeometry x="767" y="517" width="160" height="60" as="geometry" />
        </mxCell>
        <mxCell id="nhHEfngSigDMjDyeL3VS-26" value="" style="line;strokeWidth=1;fillColor=none;align=left;verticalAlign=middle;spacingTop=-1;spacingLeft=3;spacingRight=3;rotatable=0;labelPosition=right;points=[];portConstraint=eastwest;strokeColor=inherit;" parent="nhHEfngSigDMjDyeL3VS-25" vertex="1">
          <mxGeometry y="26" width="160" height="8" as="geometry" />
        </mxCell>
        <mxCell id="nhHEfngSigDMjDyeL3VS-27" value="+getData(Data): void" style="text;strokeColor=none;fillColor=none;align=left;verticalAlign=top;spacingLeft=4;spacingRight=4;overflow=hidden;rotatable=0;points=[[0,0.5],[1,0.5]];portConstraint=eastwest;whiteSpace=wrap;html=1;" parent="nhHEfngSigDMjDyeL3VS-25" vertex="1">
          <mxGeometry y="34" width="160" height="26" as="geometry" />
        </mxCell>
        <mxCell id="nhHEfngSigDMjDyeL3VS-28" value="Use" style="endArrow=open;endSize=12;dashed=1;html=1;rounded=0;exitX=0.5;exitY=0;exitDx=0;exitDy=0;entryX=0.719;entryY=1.022;entryDx=0;entryDy=0;entryPerimeter=0;" parent="1" source="nhHEfngSigDMjDyeL3VS-25" target="nhHEfngSigDMjDyeL3VS-18" edge="1">
          <mxGeometry width="160" relative="1" as="geometry">
            <mxPoint x="664" y="530" as="sourcePoint" />
            <mxPoint x="725" y="485" as="targetPoint" />
          </mxGeometry>
        </mxCell>
      </root>
    </mxGraphModel>
  </diagram>
</mxfile>
